<svg width="193" height="186" viewBox="0 0 193 186" fill="none" xmlns="http://www.w3.org/2000/svg">
<g opacity="0.5">
<path d="M163.243 100.861C161.694 101.492 159.986 102.225 158.087 103.042L158.013 103.073C154.488 104.59 150.441 106.331 146.028 107.961C137.134 111.249 126.503 114.189 114.692 114.189C101.546 114.189 91.4718 110.675 83.3914 106.8C80.2722 105.304 77.3856 103.72 74.8416 102.324C74.1587 101.949 73.4983 101.586 72.8669 101.244C69.7538 99.5561 67.3268 98.3473 65.1655 97.6674C55.4671 94.616 46.1033 93.3006 39.1353 92.7551C35.6618 92.4831 32.8104 92.4045 30.8449 92.3931C29.8628 92.3875 29.1039 92.3986 28.6012 92.4106C28.3499 92.4166 28.1628 92.4228 28.0441 92.4272L27.9179 92.4323L27.8975 92.4332L26.7904 92.4888C35.4683 122.808 63.3925 145 96.4999 145C126.476 145 152.203 126.807 163.243 100.861Z" fill="#A0A0A0"/>
<path d="M32.9674 37.5455L35.1219 39.7405L35.1448 39.7633L35.2805 39.8963C35.4108 40.0226 35.6199 40.222 35.9055 40.4842C36.4769 41.0089 37.3524 41.7832 38.5124 42.7247C40.8359 44.6102 44.2809 47.1498 48.6914 49.6941C57.5313 54.7934 70.0745 59.8135 85.1685 59.8135C95.1273 59.8135 102.751 56.9568 109.219 53.5773C111.793 52.2322 114.111 50.8465 116.414 49.4702C117.079 49.073 117.742 48.6766 118.409 48.2821C121.253 46.6022 124.287 44.8906 127.361 43.8368C137.193 40.4663 145.777 39.0352 151.944 38.4484C155.029 38.1548 157.516 38.0719 159.261 38.0643C159.651 38.0626 160.004 38.0647 160.318 38.069C148.062 15.3995 124.079 0 96.4999 0C69.1333 0 45.3082 15.1628 32.9674 37.5455Z" fill="#A0A0A0"/>
<path opacity="0.5" d="M167.371 87.8545C168.438 82.9055 169 77.7687 169 72.5006C169 64.3704 167.662 56.5528 165.194 49.256L161.374 48.9822L161.366 48.9817L161.296 48.9777C161.222 48.9737 161.098 48.9677 160.924 48.9616C160.576 48.9493 160.031 48.9367 159.308 48.9398C157.862 48.9461 155.704 49.0153 152.974 49.2751C147.51 49.795 139.782 51.0756 130.887 54.1246C128.979 54.7787 126.803 55.9549 123.941 57.6459C123.367 57.985 122.767 58.3439 122.143 58.7169C119.807 60.1139 117.135 61.7119 114.255 63.2165C106.787 67.1184 97.4153 70.6891 85.1686 70.6891C67.6376 70.6891 53.2211 64.8622 43.2575 59.1147C38.2662 56.2354 34.3486 53.3516 31.6598 51.1695C30.3137 50.0771 29.2707 49.1567 28.5501 48.4949C28.4186 48.3741 28.2977 48.2618 28.1876 48.1587C25.4763 55.767 24 63.9614 24 72.5006C24 75.6209 24.1971 78.6951 24.5796 81.7116L27.3645 81.5719L27.3833 81.571L27.4412 81.5684L27.6376 81.5604C27.8038 81.5542 28.0398 81.5465 28.3416 81.5393C28.945 81.5248 29.8117 81.5125 30.908 81.5189C33.0992 81.5316 36.2152 81.6188 39.9843 81.9138C47.5015 82.5024 57.7238 83.926 68.4295 87.2943C71.6965 88.3222 74.946 90.0012 78.0504 91.6843C78.7723 92.0757 79.4912 92.4701 80.213 92.8661C82.7243 94.2437 85.2709 95.6407 88.0938 96.9945C95.1976 100.401 103.642 103.314 114.692 103.314C124.716 103.314 133.989 100.818 142.259 97.7614C146.397 96.2318 150.221 94.5873 153.79 93.0523L153.923 92.9952C157.363 91.5153 160.71 90.0756 163.655 89.0936L167.371 87.8545Z" fill="#A0A0A0"/>
</g>
<path d="M4.88281 181V179.758H8.36719C9.21615 179.758 9.85938 179.589 10.2969 179.25C10.7344 178.911 10.9531 178.419 10.9531 177.773V177.758C10.9531 177.326 10.8516 176.964 10.6484 176.672C10.4453 176.38 10.1406 176.161 9.73438 176.016C9.33333 175.87 8.83333 175.797 8.23438 175.797H4.88281V174.586H7.83594C8.6901 174.586 9.33073 174.435 9.75781 174.133C10.1901 173.831 10.4062 173.383 10.4062 172.789V172.773C10.4062 172.201 10.2109 171.758 9.82031 171.445C9.4349 171.128 8.89323 170.969 8.19531 170.969H4.88281V169.727H8.49219C9.1849 169.727 9.77865 169.841 10.2734 170.07C10.7734 170.299 11.1562 170.625 11.4219 171.047C11.6927 171.464 11.8281 171.958 11.8281 172.531V172.547C11.8281 172.938 11.7396 173.305 11.5625 173.648C11.3906 173.992 11.1589 174.281 10.8672 174.516C10.5755 174.75 10.2474 174.901 9.88281 174.969V175.094C10.3984 175.156 10.8438 175.31 11.2188 175.555C11.5938 175.799 11.8828 176.117 12.0859 176.508C12.2943 176.893 12.3984 177.333 12.3984 177.828V177.844C12.3984 178.5 12.2448 179.065 11.9375 179.539C11.6354 180.008 11.2005 180.37 10.6328 180.625C10.0651 180.875 9.38021 181 8.57812 181H4.88281ZM4.17969 181V169.727H5.58594V181H4.17969ZM14.1234 181V172.578H15.4828V173.828H15.6078C15.7693 173.385 16.0427 173.042 16.4281 172.797C16.8135 172.552 17.2901 172.43 17.8578 172.43C17.988 172.43 18.1156 172.438 18.2406 172.453C18.3708 172.464 18.4698 172.474 18.5375 172.484V173.805C18.3969 173.779 18.2589 173.76 18.1234 173.75C17.9932 173.734 17.8526 173.727 17.7016 173.727C17.2693 173.727 16.8865 173.812 16.5531 173.984C16.2198 174.156 15.9568 174.396 15.7641 174.703C15.5766 175.01 15.4828 175.37 15.4828 175.781V181H14.1234ZM23.0438 181.148C22.2469 181.148 21.5568 180.974 20.9734 180.625C20.3953 180.271 19.9474 179.768 19.6297 179.117C19.3172 178.466 19.1609 177.693 19.1609 176.797V176.781C19.1609 175.88 19.3172 175.104 19.6297 174.453C19.9474 173.802 20.3953 173.302 20.9734 172.953C21.5568 172.604 22.2469 172.43 23.0438 172.43C23.8458 172.43 24.5359 172.604 25.1141 172.953C25.6922 173.302 26.1375 173.802 26.45 174.453C26.7677 175.104 26.9266 175.88 26.9266 176.781V176.797C26.9266 177.693 26.7677 178.466 26.45 179.117C26.1375 179.768 25.6922 180.271 25.1141 180.625C24.5359 180.974 23.8458 181.148 23.0438 181.148ZM23.0438 179.945C23.575 179.945 24.0255 179.82 24.3953 179.57C24.7651 179.32 25.0464 178.961 25.2391 178.492C25.437 178.023 25.5359 177.458 25.5359 176.797V176.781C25.5359 176.115 25.437 175.547 25.2391 175.078C25.0464 174.609 24.7651 174.253 24.3953 174.008C24.0255 173.758 23.575 173.633 23.0438 173.633C22.5125 173.633 22.062 173.758 21.6922 174.008C21.3224 174.253 21.0385 174.609 20.8406 175.078C20.6479 175.547 20.5516 176.115 20.5516 176.781V176.797C20.5516 177.458 20.6479 178.023 20.8406 178.492C21.0385 178.961 21.3224 179.32 21.6922 179.57C22.062 179.82 22.5125 179.945 23.0438 179.945ZM29.9484 181L27.5891 172.578H28.9484L30.6047 179.312H30.7297L32.6125 172.578H33.9016L35.7844 179.312H35.9094L37.5656 172.578H38.9172L36.5578 181H35.1906L33.3078 174.484H33.1828L31.3078 181H29.9484ZM42.9703 181.148C42.3453 181.148 41.7932 181.055 41.3141 180.867C40.8349 180.674 40.4495 180.406 40.1578 180.062C39.8714 179.719 39.7021 179.315 39.65 178.852H41.0406C41.1552 179.201 41.3792 179.482 41.7125 179.695C42.0458 179.909 42.4807 180.016 43.0172 180.016C43.3974 180.016 43.7307 179.961 44.0172 179.852C44.3089 179.737 44.538 179.583 44.7047 179.391C44.8714 179.193 44.9547 178.966 44.9547 178.711V178.695C44.9547 178.409 44.8401 178.167 44.6109 177.969C44.3818 177.766 44.0068 177.602 43.4859 177.477L42.1813 177.164C41.6552 177.039 41.2229 176.878 40.8844 176.68C40.5458 176.477 40.2958 176.229 40.1344 175.938C39.9729 175.641 39.8922 175.292 39.8922 174.891V174.883C39.8922 174.414 40.0276 173.995 40.2984 173.625C40.5745 173.255 40.9495 172.964 41.4234 172.75C41.8974 172.536 42.4313 172.43 43.025 172.43C43.6135 172.43 44.1344 172.523 44.5875 172.711C45.0458 172.893 45.413 173.154 45.6891 173.492C45.9703 173.831 46.1422 174.229 46.2047 174.688H44.8688C44.7802 174.354 44.5771 174.083 44.2594 173.875C43.9417 173.667 43.5276 173.562 43.0172 173.562C42.6839 173.562 42.387 173.617 42.1266 173.727C41.8661 173.831 41.6604 173.977 41.5094 174.164C41.3583 174.352 41.2828 174.57 41.2828 174.82V174.836C41.2828 175.023 41.3323 175.19 41.4313 175.336C41.5302 175.482 41.6839 175.609 41.8922 175.719C42.1005 175.828 42.3688 175.924 42.6969 176.008L43.9938 176.32C44.7854 176.513 45.374 176.789 45.7594 177.148C46.15 177.508 46.3453 177.99 46.3453 178.594V178.609C46.3453 179.109 46.1969 179.552 45.9 179.938C45.6031 180.318 45.1995 180.615 44.6891 180.828C44.1839 181.042 43.6109 181.148 42.9703 181.148ZM48.0859 181V172.578H49.4453V181H48.0859ZM48.7734 170.953C48.5182 170.953 48.2969 170.862 48.1094 170.68C47.9271 170.492 47.8359 170.271 47.8359 170.016C47.8359 169.755 47.9271 169.534 48.1094 169.352C48.2969 169.169 48.5182 169.078 48.7734 169.078C49.0339 169.078 49.2552 169.169 49.4375 169.352C49.6198 169.534 49.7109 169.755 49.7109 170.016C49.7109 170.271 49.6198 170.492 49.4375 170.68C49.2552 170.862 49.0339 170.953 48.7734 170.953ZM51.6078 181V172.578H52.9672V173.844H53.0922C53.3057 173.396 53.613 173.049 54.0141 172.805C54.4151 172.555 54.9255 172.43 55.5453 172.43C56.4932 172.43 57.2198 172.701 57.725 173.242C58.2354 173.779 58.4906 174.547 58.4906 175.547V181H57.1312V175.875C57.1312 175.115 56.9698 174.552 56.6469 174.188C56.3292 173.818 55.8344 173.633 55.1625 173.633C54.7146 173.633 54.3266 173.729 53.9984 173.922C53.6703 174.115 53.4151 174.388 53.2328 174.742C53.0557 175.096 52.9672 175.521 52.9672 176.016V181H51.6078ZM64.0203 183.969C63.3432 183.969 62.7521 183.872 62.2469 183.68C61.7417 183.492 61.338 183.224 61.0359 182.875C60.7391 182.531 60.5542 182.13 60.4813 181.672L60.4969 181.664H61.9031L61.9109 181.672C61.9839 181.99 62.2026 182.25 62.5672 182.453C62.9318 182.661 63.4161 182.766 64.0203 182.766C64.7755 182.766 65.3641 182.594 65.7859 182.25C66.213 181.911 66.4266 181.432 66.4266 180.812V179.109H66.3016C66.1245 179.417 65.9031 179.68 65.6375 179.898C65.3719 180.117 65.0724 180.284 64.7391 180.398C64.4057 180.508 64.0464 180.562 63.6609 180.562C62.937 180.562 62.3094 180.391 61.7781 180.047C61.2521 179.698 60.8458 179.219 60.5594 178.609C60.2729 178 60.1297 177.302 60.1297 176.516V176.5C60.1297 175.714 60.2729 175.016 60.5594 174.406C60.851 173.792 61.2625 173.31 61.7938 172.961C62.325 172.607 62.9578 172.43 63.6922 172.43C64.088 172.43 64.4526 172.492 64.7859 172.617C65.1193 172.742 65.4135 172.919 65.6688 173.148C65.9292 173.378 66.1453 173.651 66.3172 173.969H66.4109V172.578H67.7703V180.883C67.7703 181.508 67.6167 182.052 67.3094 182.516C67.0073 182.979 66.575 183.336 66.0125 183.586C65.45 183.841 64.7859 183.969 64.0203 183.969ZM63.9578 179.359C64.4786 179.359 64.924 179.24 65.2938 179C65.6688 178.755 65.9552 178.419 66.1531 177.992C66.3563 177.565 66.4578 177.073 66.4578 176.516V176.5C66.4578 175.943 66.3563 175.448 66.1531 175.016C65.9552 174.583 65.6688 174.245 65.2938 174C64.924 173.755 64.4786 173.633 63.9578 173.633C63.437 173.633 62.9943 173.755 62.6297 174C62.2703 174.245 61.9943 174.583 61.8016 175.016C61.6141 175.448 61.5203 175.943 61.5203 176.5V176.516C61.5203 177.073 61.6141 177.565 61.8016 177.992C61.9943 178.419 62.2703 178.755 62.6297 179C62.9943 179.24 63.437 179.359 63.9578 179.359ZM74.0797 181V169.234H75.4391V173.844H75.5641C75.7776 173.396 76.0849 173.049 76.4859 172.805C76.887 172.555 77.3974 172.43 78.0172 172.43C78.6474 172.43 79.1813 172.552 79.6188 172.797C80.0563 173.036 80.3896 173.388 80.6188 173.852C80.8479 174.315 80.9625 174.88 80.9625 175.547V181H79.6031V175.875C79.6031 175.115 79.4417 174.552 79.1188 174.188C78.801 173.818 78.3063 173.633 77.6344 173.633C77.1865 173.633 76.7984 173.729 76.4703 173.922C76.1422 174.115 75.887 174.388 75.7047 174.742C75.5276 175.096 75.4391 175.521 75.4391 176.016V181H74.0797ZM83.0547 181V172.578H84.4141V181H83.0547ZM83.7422 170.953C83.487 170.953 83.2656 170.862 83.0781 170.68C82.8958 170.492 82.8047 170.271 82.8047 170.016C82.8047 169.755 82.8958 169.534 83.0781 169.352C83.2656 169.169 83.487 169.078 83.7422 169.078C84.0026 169.078 84.224 169.169 84.4062 169.352C84.5885 169.534 84.6797 169.755 84.6797 170.016C84.6797 170.271 84.5885 170.492 84.4062 170.68C84.224 170.862 84.0026 170.953 83.7422 170.953ZM89.4672 181.148C88.8422 181.148 88.2901 181.055 87.8109 180.867C87.3318 180.674 86.9464 180.406 86.6547 180.062C86.3682 179.719 86.199 179.315 86.1469 178.852H87.5375C87.6521 179.201 87.876 179.482 88.2094 179.695C88.5427 179.909 88.9776 180.016 89.5141 180.016C89.8943 180.016 90.2276 179.961 90.5141 179.852C90.8057 179.737 91.0349 179.583 91.2016 179.391C91.3682 179.193 91.4516 178.966 91.4516 178.711V178.695C91.4516 178.409 91.337 178.167 91.1078 177.969C90.8786 177.766 90.5036 177.602 89.9828 177.477L88.6781 177.164C88.1521 177.039 87.7198 176.878 87.3812 176.68C87.0427 176.477 86.7927 176.229 86.6312 175.938C86.4698 175.641 86.3891 175.292 86.3891 174.891V174.883C86.3891 174.414 86.5245 173.995 86.7953 173.625C87.0714 173.255 87.4464 172.964 87.9203 172.75C88.3943 172.536 88.9281 172.43 89.5219 172.43C90.1104 172.43 90.6312 172.523 91.0844 172.711C91.5427 172.893 91.9099 173.154 92.1859 173.492C92.4672 173.831 92.6391 174.229 92.7016 174.688H91.3656C91.2771 174.354 91.074 174.083 90.7562 173.875C90.4385 173.667 90.0245 173.562 89.5141 173.562C89.1807 173.562 88.8839 173.617 88.6234 173.727C88.363 173.831 88.1573 173.977 88.0062 174.164C87.8552 174.352 87.7797 174.57 87.7797 174.82V174.836C87.7797 175.023 87.8292 175.19 87.9281 175.336C88.0271 175.482 88.1807 175.609 88.3891 175.719C88.5974 175.828 88.8656 175.924 89.1937 176.008L90.4906 176.32C91.2823 176.513 91.8708 176.789 92.2562 177.148C92.6469 177.508 92.8422 177.99 92.8422 178.594V178.609C92.8422 179.109 92.6937 179.552 92.3969 179.938C92.1 180.318 91.6964 180.615 91.1859 180.828C90.6807 181.042 90.1078 181.148 89.4672 181.148ZM97.4656 181.062C96.601 181.062 95.9734 180.888 95.5828 180.539C95.1974 180.19 95.0047 179.615 95.0047 178.812V173.703H93.6766V172.578H95.0047V170.398H96.4109V172.578H98.2547V173.703H96.4109V178.469C96.4109 178.964 96.5047 179.32 96.6922 179.539C96.8797 179.753 97.1922 179.859 97.6297 179.859C97.7495 179.859 97.851 179.857 97.9344 179.852C98.0229 179.846 98.1297 179.839 98.2547 179.828V180.984C98.1245 181.005 97.9943 181.023 97.8641 181.039C97.7339 181.055 97.601 181.062 97.4656 181.062ZM103.238 181.148C102.441 181.148 101.751 180.974 101.167 180.625C100.589 180.271 100.141 179.768 99.8234 179.117C99.5109 178.466 99.3547 177.693 99.3547 176.797V176.781C99.3547 175.88 99.5109 175.104 99.8234 174.453C100.141 173.802 100.589 173.302 101.167 172.953C101.751 172.604 102.441 172.43 103.238 172.43C104.04 172.43 104.73 172.604 105.308 172.953C105.886 173.302 106.331 173.802 106.644 174.453C106.961 175.104 107.12 175.88 107.12 176.781V176.797C107.12 177.693 106.961 178.466 106.644 179.117C106.331 179.768 105.886 180.271 105.308 180.625C104.73 180.974 104.04 181.148 103.238 181.148ZM103.238 179.945C103.769 179.945 104.219 179.82 104.589 179.57C104.959 179.32 105.24 178.961 105.433 178.492C105.631 178.023 105.73 177.458 105.73 176.797V176.781C105.73 176.115 105.631 175.547 105.433 175.078C105.24 174.609 104.959 174.253 104.589 174.008C104.219 173.758 103.769 173.633 103.238 173.633C102.706 173.633 102.256 173.758 101.886 174.008C101.516 174.253 101.232 174.609 101.034 175.078C100.842 175.547 100.745 176.115 100.745 176.781V176.797C100.745 177.458 100.842 178.023 101.034 178.492C101.232 178.961 101.516 179.32 101.886 179.57C102.256 179.82 102.706 179.945 103.238 179.945ZM108.83 181V172.578H110.189V173.828H110.314C110.476 173.385 110.749 173.042 111.134 172.797C111.52 172.552 111.996 172.43 112.564 172.43C112.694 172.43 112.822 172.438 112.947 172.453C113.077 172.464 113.176 172.474 113.244 172.484V173.805C113.103 173.779 112.965 173.76 112.83 173.75C112.699 173.734 112.559 173.727 112.408 173.727C111.976 173.727 111.593 173.812 111.259 173.984C110.926 174.156 110.663 174.396 110.47 174.703C110.283 175.01 110.189 175.37 110.189 175.781V181H108.83ZM115.32 183.953C115.232 183.953 115.133 183.948 115.023 183.938C114.914 183.932 114.812 183.922 114.719 183.906V182.789C114.802 182.805 114.893 182.815 114.992 182.82C115.091 182.826 115.188 182.828 115.281 182.828C115.667 182.828 115.982 182.729 116.227 182.531C116.477 182.333 116.677 181.992 116.828 181.508L116.984 181.008L113.867 172.578H115.32L117.914 180.359L117.375 179.508H118.016L117.477 180.359L120.062 172.578H121.492L118.203 181.516C117.974 182.146 117.732 182.638 117.477 182.992C117.221 183.346 116.922 183.594 116.578 183.734C116.24 183.88 115.82 183.953 115.32 183.953ZM127.02 181V172.578H128.38V181H127.02ZM127.708 170.953C127.453 170.953 127.231 170.862 127.044 170.68C126.861 170.492 126.77 170.271 126.77 170.016C126.77 169.755 126.861 169.534 127.044 169.352C127.231 169.169 127.453 169.078 127.708 169.078C127.968 169.078 128.19 169.169 128.372 169.352C128.554 169.534 128.645 169.755 128.645 170.016C128.645 170.271 128.554 170.492 128.372 170.68C128.19 170.862 127.968 170.953 127.708 170.953ZM133.433 181.148C132.808 181.148 132.256 181.055 131.777 180.867C131.297 180.674 130.912 180.406 130.62 180.062C130.334 179.719 130.165 179.315 130.113 178.852H131.503C131.618 179.201 131.842 179.482 132.175 179.695C132.508 179.909 132.943 180.016 133.48 180.016C133.86 180.016 134.193 179.961 134.48 179.852C134.771 179.737 135.001 179.583 135.167 179.391C135.334 179.193 135.417 178.966 135.417 178.711V178.695C135.417 178.409 135.303 178.167 135.073 177.969C134.844 177.766 134.469 177.602 133.948 177.477L132.644 177.164C132.118 177.039 131.685 176.878 131.347 176.68C131.008 176.477 130.758 176.229 130.597 175.938C130.435 175.641 130.355 175.292 130.355 174.891V174.883C130.355 174.414 130.49 173.995 130.761 173.625C131.037 173.255 131.412 172.964 131.886 172.75C132.36 172.536 132.894 172.43 133.488 172.43C134.076 172.43 134.597 172.523 135.05 172.711C135.508 172.893 135.876 173.154 136.152 173.492C136.433 173.831 136.605 174.229 136.667 174.688H135.331C135.243 174.354 135.04 174.083 134.722 173.875C134.404 173.667 133.99 173.562 133.48 173.562C133.146 173.562 132.849 173.617 132.589 173.727C132.329 173.831 132.123 173.977 131.972 174.164C131.821 174.352 131.745 174.57 131.745 174.82V174.836C131.745 175.023 131.795 175.19 131.894 175.336C131.993 175.482 132.146 175.609 132.355 175.719C132.563 175.828 132.831 175.924 133.159 176.008L134.456 176.32C135.248 176.513 135.836 176.789 136.222 177.148C136.613 177.508 136.808 177.99 136.808 178.594V178.609C136.808 179.109 136.659 179.552 136.363 179.938C136.066 180.318 135.662 180.615 135.152 180.828C134.646 181.042 134.073 181.148 133.433 181.148ZM146.055 181.148C145.253 181.148 144.562 180.971 143.984 180.617C143.411 180.263 142.969 179.763 142.656 179.117C142.349 178.466 142.195 177.701 142.195 176.82V176.812C142.195 175.943 142.349 175.18 142.656 174.523C142.969 173.867 143.409 173.354 143.977 172.984C144.544 172.615 145.208 172.43 145.969 172.43C146.734 172.43 147.391 172.607 147.938 172.961C148.49 173.315 148.911 173.81 149.203 174.445C149.5 175.076 149.648 175.81 149.648 176.648V177.18H142.898V176.094H148.953L148.281 177.086V176.547C148.281 175.885 148.182 175.341 147.984 174.914C147.786 174.487 147.513 174.169 147.164 173.961C146.815 173.747 146.414 173.641 145.961 173.641C145.508 173.641 145.102 173.753 144.742 173.977C144.388 174.195 144.107 174.521 143.898 174.953C143.69 175.385 143.586 175.917 143.586 176.547V177.086C143.586 177.685 143.688 178.198 143.891 178.625C144.094 179.047 144.383 179.372 144.758 179.602C145.133 179.826 145.576 179.938 146.086 179.938C146.466 179.938 146.797 179.885 147.078 179.781C147.359 179.677 147.591 179.544 147.773 179.383C147.956 179.221 148.083 179.057 148.156 178.891L148.188 178.82H149.547L149.531 178.883C149.458 179.169 149.328 179.448 149.141 179.719C148.958 179.984 148.721 180.227 148.43 180.445C148.138 180.659 147.792 180.831 147.391 180.961C146.995 181.086 146.549 181.148 146.055 181.148ZM151.358 181V172.578H152.717V173.859H152.842C153.03 173.406 153.316 173.055 153.702 172.805C154.092 172.555 154.564 172.43 155.116 172.43C155.496 172.43 155.837 172.492 156.139 172.617C156.441 172.742 156.702 172.917 156.92 173.141C157.139 173.359 157.314 173.615 157.444 173.906H157.569C157.72 173.609 157.923 173.352 158.178 173.133C158.433 172.909 158.728 172.737 159.061 172.617C159.399 172.492 159.761 172.43 160.147 172.43C160.72 172.43 161.204 172.536 161.6 172.75C162.001 172.964 162.306 173.276 162.514 173.688C162.722 174.094 162.827 174.591 162.827 175.18V181H161.467V175.492C161.467 175.076 161.402 174.732 161.272 174.461C161.147 174.185 160.954 173.979 160.694 173.844C160.433 173.703 160.105 173.633 159.709 173.633C159.319 173.633 158.978 173.721 158.686 173.898C158.394 174.076 158.168 174.312 158.006 174.609C157.845 174.901 157.764 175.227 157.764 175.586V181H156.405V175.281C156.405 174.948 156.332 174.659 156.186 174.414C156.045 174.164 155.842 173.971 155.577 173.836C155.316 173.701 155.009 173.633 154.655 173.633C154.29 173.633 153.959 173.729 153.663 173.922C153.371 174.115 153.139 174.375 152.967 174.703C152.801 175.026 152.717 175.385 152.717 175.781V181H151.358ZM164.88 183.812V172.578H166.239V173.922H166.364C166.536 173.609 166.752 173.344 167.012 173.125C167.273 172.901 167.57 172.729 167.903 172.609C168.236 172.49 168.598 172.43 168.989 172.43C169.703 172.43 170.322 172.612 170.848 172.977C171.38 173.336 171.791 173.841 172.083 174.492C172.374 175.143 172.52 175.906 172.52 176.781V176.797C172.52 177.677 172.374 178.443 172.083 179.094C171.791 179.745 171.38 180.25 170.848 180.609C170.322 180.969 169.703 181.148 168.989 181.148C168.604 181.148 168.239 181.089 167.895 180.969C167.557 180.844 167.255 180.672 166.989 180.453C166.729 180.234 166.52 179.974 166.364 179.672H166.239V183.812H164.88ZM168.677 179.945C169.192 179.945 169.632 179.82 169.997 179.57C170.361 179.315 170.64 178.953 170.833 178.484C171.031 178.01 171.13 177.448 171.13 176.797V176.781C171.13 176.125 171.031 175.562 170.833 175.094C170.64 174.625 170.361 174.266 169.997 174.016C169.632 173.76 169.192 173.633 168.677 173.633C168.166 173.633 167.726 173.76 167.356 174.016C166.986 174.271 166.703 174.633 166.505 175.102C166.307 175.57 166.208 176.13 166.208 176.781V176.797C166.208 177.443 166.307 178.003 166.505 178.477C166.703 178.945 166.986 179.307 167.356 179.562C167.726 179.818 168.166 179.945 168.677 179.945ZM177.238 181.062C176.373 181.062 175.745 180.888 175.355 180.539C174.969 180.19 174.777 179.615 174.777 178.812V173.703H173.448V172.578H174.777V170.398H176.183V172.578H178.027V173.703H176.183V178.469C176.183 178.964 176.277 179.32 176.464 179.539C176.652 179.753 176.964 179.859 177.402 179.859C177.521 179.859 177.623 179.857 177.706 179.852C177.795 179.846 177.902 179.839 178.027 179.828V180.984C177.896 181.005 177.766 181.023 177.636 181.039C177.506 181.055 177.373 181.062 177.238 181.062ZM180.377 183.953C180.288 183.953 180.189 183.948 180.08 183.938C179.97 183.932 179.869 183.922 179.775 183.906V182.789C179.858 182.805 179.949 182.815 180.048 182.82C180.147 182.826 180.244 182.828 180.337 182.828C180.723 182.828 181.038 182.729 181.283 182.531C181.533 182.333 181.733 181.992 181.884 181.508L182.041 181.008L178.923 172.578H180.377L182.97 180.359L182.431 179.508H183.072L182.533 180.359L185.119 172.578H186.548L183.259 181.516C183.03 182.146 182.788 182.638 182.533 182.992C182.278 183.346 181.978 183.594 181.634 183.734C181.296 183.88 180.877 183.953 180.377 183.953ZM187.883 181.078C187.607 181.078 187.367 180.979 187.164 180.781C186.966 180.578 186.867 180.339 186.867 180.062C186.867 179.781 186.966 179.542 187.164 179.344C187.367 179.146 187.607 179.047 187.883 179.047C188.164 179.047 188.404 179.146 188.602 179.344C188.799 179.542 188.898 179.781 188.898 180.062C188.898 180.339 188.799 180.578 188.602 180.781C188.404 180.979 188.164 181.078 187.883 181.078Z" fill="#A0A0A0"/>
</svg>
